<mxfile host="Electron" agent="Mozilla/5.0 (Windows NT 10.0; Win64; x64) AppleWebKit/537.36 (KHTML, like Gecko) draw.io/24.7.8 Chrome/128.0.6613.36 Electron/32.0.1 Safari/537.36" version="24.7.8">
  <diagram name="Page-1" id="detN6EisahPLz_axS79E">
    <mxGraphModel dx="1430" dy="830" grid="1" gridSize="10" guides="1" tooltips="1" connect="1" arrows="1" fold="1" page="1" pageScale="1" pageWidth="850" pageHeight="1100" math="0" shadow="0">
      <root>
        <mxCell id="0" />
        <mxCell id="1" parent="0" />
        <mxCell id="ntDHJzHHEYnjNZ_ErYIc-1" value="" style="html=1;shape=mxgraph.sysml.package;html=1;overflow=fill;whiteSpace=wrap;movable=0;resizable=0;rotatable=0;deletable=0;editable=0;locked=1;connectable=0;" vertex="1" parent="1">
          <mxGeometry x="130" y="310" width="2130" height="710" as="geometry" />
        </mxCell>
        <mxCell id="ntDHJzHHEYnjNZ_ErYIc-2" value="Pegasus" style="swimlane;childLayout=stackLayout;resizeParent=1;resizeParentMax=0;horizontal=1;startSize=20;horizontalStack=0;html=1;" vertex="1" parent="1">
          <mxGeometry x="200" y="360" width="2010" height="140" as="geometry" />
        </mxCell>
        <mxCell id="ntDHJzHHEYnjNZ_ErYIc-3" value="MRA" style="swimlane;startSize=20;horizontal=0;html=1;" vertex="1" parent="ntDHJzHHEYnjNZ_ErYIc-2">
          <mxGeometry y="20" width="2010" height="120" as="geometry" />
        </mxCell>
        <mxCell id="ntDHJzHHEYnjNZ_ErYIc-4" value="ERU" style="swimlane;startSize=20;horizontal=0;html=1;" vertex="1" parent="ntDHJzHHEYnjNZ_ErYIc-3">
          <mxGeometry y="120" width="2010" height="120" as="geometry" />
        </mxCell>
        <mxCell id="ntDHJzHHEYnjNZ_ErYIc-22" value="" style="edgeStyle=elbowEdgeStyle;html=1;elbow=vertical;endArrow=open;rounded=0;strokeWidth=3;endSize=12;" edge="1" parent="ntDHJzHHEYnjNZ_ErYIc-4" target="ntDHJzHHEYnjNZ_ErYIc-24">
          <mxGeometry relative="1" as="geometry">
            <mxPoint x="780" y="60" as="targetPoint" />
            <mxPoint x="604" y="59.99571428571426" as="sourcePoint" />
          </mxGeometry>
        </mxCell>
        <mxCell id="ntDHJzHHEYnjNZ_ErYIc-25" value="Rescue Survivor" style="shape=rect;html=1;rounded=1;whiteSpace=wrap;align=center;" vertex="1" parent="ntDHJzHHEYnjNZ_ErYIc-4">
          <mxGeometry x="850" y="20" width="160" height="80" as="geometry" />
        </mxCell>
        <mxCell id="ntDHJzHHEYnjNZ_ErYIc-5" value="FRA" style="swimlane;startSize=20;horizontal=0;html=1;" vertex="1" parent="ntDHJzHHEYnjNZ_ErYIc-4">
          <mxGeometry y="120" width="2010" height="120" as="geometry" />
        </mxCell>
        <mxCell id="ntDHJzHHEYnjNZ_ErYIc-31" value="" style="html=1;shape=mxgraph.sysml.actFinal;strokeWidth=2;verticalLabelPosition=bottom;verticalAlignment=top;" vertex="1" parent="ntDHJzHHEYnjNZ_ErYIc-5">
          <mxGeometry x="1850" y="40" width="40" height="40" as="geometry" />
        </mxCell>
        <mxCell id="ntDHJzHHEYnjNZ_ErYIc-21" value="" style="edgeStyle=elbowEdgeStyle;html=1;elbow=vertical;endArrow=open;rounded=0;strokeWidth=3;endSize=12;" edge="1" parent="ntDHJzHHEYnjNZ_ErYIc-3" target="ntDHJzHHEYnjNZ_ErYIc-47">
          <mxGeometry relative="1" as="geometry">
            <mxPoint x="640" y="60" as="targetPoint" />
            <mxPoint x="604" y="59.9957142857142" as="sourcePoint" />
          </mxGeometry>
        </mxCell>
        <mxCell id="ntDHJzHHEYnjNZ_ErYIc-44" value="1 Hour" style="html=1;shape=mxgraph.sysml.timeEvent;strokeWidth=2;verticalLabelPosition=bottom;verticalAlignment=top;" vertex="1" parent="ntDHJzHHEYnjNZ_ErYIc-3">
          <mxGeometry x="1580" y="30" width="35" height="40" as="geometry" />
        </mxCell>
        <mxCell id="ntDHJzHHEYnjNZ_ErYIc-6" value="MEA" style="swimlane;startSize=20;horizontal=0;html=1;" vertex="1" parent="1">
          <mxGeometry x="200" y="740" width="2010" height="120" as="geometry" />
        </mxCell>
        <mxCell id="ntDHJzHHEYnjNZ_ErYIc-29" value="Suppress Hotspot" style="shape=rect;html=1;rounded=1;whiteSpace=wrap;align=center;" vertex="1" parent="ntDHJzHHEYnjNZ_ErYIc-6">
          <mxGeometry x="1410" y="20" width="160" height="80" as="geometry" />
        </mxCell>
        <mxCell id="ntDHJzHHEYnjNZ_ErYIc-8" value="GCS" style="swimlane;startSize=20;horizontal=0;html=1;" vertex="1" parent="1">
          <mxGeometry x="200" y="860" width="2010" height="120" as="geometry" />
        </mxCell>
        <mxCell id="ntDHJzHHEYnjNZ_ErYIc-40" value="Monitor Health and Status" style="shape=rect;html=1;rounded=1;whiteSpace=wrap;align=center;" vertex="1" parent="ntDHJzHHEYnjNZ_ErYIc-8">
          <mxGeometry x="1075" y="20" width="160" height="80" as="geometry" />
        </mxCell>
        <mxCell id="ntDHJzHHEYnjNZ_ErYIc-39" value="Set Vehicle Boundaries" style="shape=rect;html=1;rounded=1;whiteSpace=wrap;align=center;" vertex="1" parent="ntDHJzHHEYnjNZ_ErYIc-8">
          <mxGeometry x="90" y="20" width="160" height="80" as="geometry" />
        </mxCell>
        <mxCell id="ntDHJzHHEYnjNZ_ErYIc-17" style="edgeStyle=orthogonalEdgeStyle;rounded=0;orthogonalLoop=1;jettySize=auto;html=1;entryX=0;entryY=0.5;entryDx=0;entryDy=0;" edge="1" parent="1" source="ntDHJzHHEYnjNZ_ErYIc-9" target="ntDHJzHHEYnjNZ_ErYIc-11">
          <mxGeometry relative="1" as="geometry" />
        </mxCell>
        <mxCell id="ntDHJzHHEYnjNZ_ErYIc-9" value="Detect Survivor" style="shape=rect;html=1;rounded=1;whiteSpace=wrap;align=center;" vertex="1" parent="1">
          <mxGeometry x="410" y="400" width="160" height="80" as="geometry" />
        </mxCell>
        <mxCell id="ntDHJzHHEYnjNZ_ErYIc-57" style="edgeStyle=orthogonalEdgeStyle;rounded=0;orthogonalLoop=1;jettySize=auto;html=1;entryX=-0.327;entryY=0.161;entryDx=0;entryDy=0;entryPerimeter=0;" edge="1" parent="1" source="ntDHJzHHEYnjNZ_ErYIc-10" target="ntDHJzHHEYnjNZ_ErYIc-32">
          <mxGeometry relative="1" as="geometry">
            <mxPoint x="1640" y="680" as="targetPoint" />
          </mxGeometry>
        </mxCell>
        <mxCell id="ntDHJzHHEYnjNZ_ErYIc-10" value="Detect Hotspot" style="shape=rect;html=1;rounded=1;whiteSpace=wrap;align=center;" vertex="1" parent="1">
          <mxGeometry x="1275" y="640" width="160" height="80" as="geometry" />
        </mxCell>
        <mxCell id="ntDHJzHHEYnjNZ_ErYIc-11" value="Deploy Relief Package" style="shape=rect;html=1;rounded=1;whiteSpace=wrap;align=center;" vertex="1" parent="1">
          <mxGeometry x="600" y="400" width="160" height="80" as="geometry" />
        </mxCell>
        <mxCell id="ntDHJzHHEYnjNZ_ErYIc-18" value="" style="shape=rect;html=1;fillColor=strokeColor;verticalLabelPosition=bottom;verticalAlignment=top;" vertex="1" parent="1">
          <mxGeometry x="800" y="400" width="4" height="200" as="geometry" />
        </mxCell>
        <mxCell id="ntDHJzHHEYnjNZ_ErYIc-19" value="" style="edgeStyle=elbowEdgeStyle;html=1;elbow=horizontal;endArrow=none;rounded=0;startArrow=open;strokeWidth=3;startSize=12;exitX=-0.086;exitY=0.198;exitDx=0;exitDy=0;exitPerimeter=0;" edge="1" source="ntDHJzHHEYnjNZ_ErYIc-18" parent="1">
          <mxGeometry relative="1" as="geometry">
            <mxPoint x="760" y="440" as="targetPoint" />
          </mxGeometry>
        </mxCell>
        <mxCell id="ntDHJzHHEYnjNZ_ErYIc-27" style="edgeStyle=orthogonalEdgeStyle;rounded=0;orthogonalLoop=1;jettySize=auto;html=1;entryX=0;entryY=0.5;entryDx=0;entryDy=0;" edge="1" parent="1" source="ntDHJzHHEYnjNZ_ErYIc-24" target="ntDHJzHHEYnjNZ_ErYIc-25">
          <mxGeometry relative="1" as="geometry" />
        </mxCell>
        <mxCell id="ntDHJzHHEYnjNZ_ErYIc-24" value="Retrieve Relief Package" style="shape=rect;html=1;rounded=1;whiteSpace=wrap;align=center;" vertex="1" parent="1">
          <mxGeometry x="850" y="520" width="160" height="80" as="geometry" />
        </mxCell>
        <mxCell id="ntDHJzHHEYnjNZ_ErYIc-52" style="edgeStyle=orthogonalEdgeStyle;rounded=0;orthogonalLoop=1;jettySize=auto;html=1;entryX=0;entryY=0.5;entryDx=0;entryDy=0;" edge="1" parent="1" source="ntDHJzHHEYnjNZ_ErYIc-28" target="ntDHJzHHEYnjNZ_ErYIc-29">
          <mxGeometry relative="1" as="geometry">
            <mxPoint x="1500" y="800" as="targetPoint" />
          </mxGeometry>
        </mxCell>
        <mxCell id="ntDHJzHHEYnjNZ_ErYIc-28" value="Extract Survivor" style="shape=rect;html=1;rounded=1;whiteSpace=wrap;align=center;" vertex="1" parent="1">
          <mxGeometry x="1275" y="760" width="160" height="80" as="geometry" />
        </mxCell>
        <mxCell id="ntDHJzHHEYnjNZ_ErYIc-32" value="" style="shape=rect;html=1;fillColor=strokeColor;verticalLabelPosition=bottom;labelBackgroundColor=#ffffff;verticalAlign=top;" vertex="1" parent="1">
          <mxGeometry x="1865" y="650" width="4" height="190" as="geometry" />
        </mxCell>
        <mxCell id="ntDHJzHHEYnjNZ_ErYIc-42" style="edgeStyle=orthogonalEdgeStyle;rounded=0;orthogonalLoop=1;jettySize=auto;html=1;" edge="1" parent="1" source="ntDHJzHHEYnjNZ_ErYIc-12" target="ntDHJzHHEYnjNZ_ErYIc-39">
          <mxGeometry relative="1" as="geometry" />
        </mxCell>
        <mxCell id="ntDHJzHHEYnjNZ_ErYIc-12" value="" style="shape=ellipse;html=1;fillColor=strokeColor;strokeWidth=2;verticalLabelPosition=bottom;verticalAlignment=top;perimeter=ellipsePerimeter;" vertex="1" parent="1">
          <mxGeometry x="230" y="900" width="40" height="40" as="geometry" />
        </mxCell>
        <mxCell id="ntDHJzHHEYnjNZ_ErYIc-43" style="edgeStyle=orthogonalEdgeStyle;rounded=0;orthogonalLoop=1;jettySize=auto;html=1;entryX=0;entryY=0.5;entryDx=0;entryDy=0;" edge="1" parent="1" source="ntDHJzHHEYnjNZ_ErYIc-39" target="ntDHJzHHEYnjNZ_ErYIc-9">
          <mxGeometry relative="1" as="geometry" />
        </mxCell>
        <mxCell id="ntDHJzHHEYnjNZ_ErYIc-49" style="edgeStyle=orthogonalEdgeStyle;rounded=0;orthogonalLoop=1;jettySize=auto;html=1;entryX=0.5;entryY=0;entryDx=0;entryDy=0;exitX=1;exitY=0.5;exitDx=0;exitDy=0;" edge="1" parent="1" source="ntDHJzHHEYnjNZ_ErYIc-47" target="ntDHJzHHEYnjNZ_ErYIc-10">
          <mxGeometry relative="1" as="geometry">
            <mxPoint x="1070" y="420" as="sourcePoint" />
            <mxPoint x="1370" y="660" as="targetPoint" />
          </mxGeometry>
        </mxCell>
        <mxCell id="ntDHJzHHEYnjNZ_ErYIc-47" value="Return t&lt;span style=&quot;background-color: initial;&quot;&gt;o Base&lt;/span&gt;" style="shape=rect;html=1;rounded=1;whiteSpace=wrap;align=center;" vertex="1" parent="1">
          <mxGeometry x="850" y="400" width="160" height="80" as="geometry" />
        </mxCell>
        <mxCell id="ntDHJzHHEYnjNZ_ErYIc-61" style="edgeStyle=orthogonalEdgeStyle;rounded=0;orthogonalLoop=1;jettySize=auto;html=1;entryX=0.043;entryY=0.791;entryDx=0;entryDy=0;entryPerimeter=0;" edge="1" parent="1" source="ntDHJzHHEYnjNZ_ErYIc-29" target="ntDHJzHHEYnjNZ_ErYIc-32">
          <mxGeometry relative="1" as="geometry" />
        </mxCell>
        <mxCell id="ntDHJzHHEYnjNZ_ErYIc-63" style="edgeStyle=orthogonalEdgeStyle;rounded=0;orthogonalLoop=1;jettySize=auto;html=1;entryX=0;entryY=0.5;entryDx=0;entryDy=0;" edge="1" parent="1" source="ntDHJzHHEYnjNZ_ErYIc-25" target="ntDHJzHHEYnjNZ_ErYIc-28">
          <mxGeometry relative="1" as="geometry" />
        </mxCell>
        <mxCell id="ntDHJzHHEYnjNZ_ErYIc-33" value="" style="edgeStyle=elbowEdgeStyle;html=1;elbow=horizontal;rounded=0;endArrow=open;strokeWidth=3;endSize=12;exitX=1.078;exitY=0.16;exitDx=0;exitDy=0;exitPerimeter=0;entryX=0;entryY=0.5;entryDx=0;entryDy=0;entryPerimeter=0;" edge="1" source="ntDHJzHHEYnjNZ_ErYIc-32" parent="1" target="ntDHJzHHEYnjNZ_ErYIc-31">
          <mxGeometry relative="1" as="geometry">
            <mxPoint x="2029.38" y="600" as="targetPoint" />
            <mxPoint x="1869" y="677.1400000000001" as="sourcePoint" />
          </mxGeometry>
        </mxCell>
      </root>
    </mxGraphModel>
  </diagram>
</mxfile>
